# xmcd
#
# Track frame offsets:
#	150
#	10605
#	21792
#	33021
#	47447
#	58557
#	71924
#	82143
#	105486
#	117328
#	134972
#	145260
#	158989
#	169932
#	183055
#	194855
#	208375
#	217131
#	234079
#	250887
#	262157
#	277572
#	288020
#	301840
#	311961
#	326317
#
# Disc length: 4580 seconds
#
# Revision: 0
# Processed by: cddbd v1.5.2PL0 Copyright (c) Steve Scherf et al.
# Submitted via: EZCDAudioConverter 1.0.8.1
#
DISCID=7e11e21a
DTITLE=B. B. King - The Vintage Years - 4 CD
DYEAR=2002
DGENRE=Blues
TTITLE0=I'm King
TTITLE1=Baby Please Don't Go
TTITLE2=Mean Old Frisco
TTITLE3=I've Got A Right To Love My Baby
TTITLE4=Fishin' After Me
TTITLE5=Partin' Time
TTITLE6=Bad Luck Soul
TTITLE7=You Done Lost Your Good Thing Now
TTITLE8=Get Out Of Here
TTITLE9=Hold That Train
TTITLE10=Bad Case Of Love
TTITLE11=Let Me Love You
TTITLE12=Mashed Potato Twist
TTITLE13=Got 'Em Bad
TTITLE14=Christmas Celebration
TTITLE15=Down Now
TTITLE16=Beautician Blues
TTITLE17=The Worst Thing In My Life
TTITLE18=Blue Shadows
TTITLE19=It's A Mean World
TTITLE20=Five Long Years
TTITLE21=Make Me Blue
TTITLE22=Blues Stay Away From Me
TTITLE23=Long Gone Baby
TTITLE24=The Jungle
TTITLE25=That Evil Child
EXTD=
EXTT0=
EXTT1=
EXTT2=
EXTT3=
EXTT4=
EXTT5=
EXTT6=
EXTT7=
EXTT8=
EXTT9=
EXTT10=
EXTT11=
EXTT12=
EXTT13=
EXTT14=
EXTT15=
EXTT16=
EXTT17=
EXTT18=
EXTT19=
EXTT20=
EXTT21=
EXTT22=
EXTT23=
EXTT24=
EXTT25=
PLAYORDER=
